<svg xmlns="http://www.w3.org/2000/svg" viewBox="0 0 60 64"><path fill="none" stroke="#F47920" stroke-width="2" stroke-miterlimit="10" d="M33 34h12M28 10V6h-3V1h10v5h-3v4" stroke-linecap="round" stroke-linejoin="round"/><path fill="none" stroke="#C1C1C1" stroke-width="2" stroke-miterlimit="10" d="M38 6.1C50.1 9.6 59 20.8 59 34c0 16-13 29-29 29S1 50 1 34C1 20.8 9.9 9.6 22 6.1" stroke-linecap="round" stroke-linejoin="round"/><circle cx="30" cy="34" r="24" fill="none" stroke="#F47920" stroke-width="2" stroke-miterlimit="10" stroke-linecap="round" stroke-linejoin="round"/><g fill="none" stroke="#C1C1C1" stroke-width="2" stroke-miterlimit="10" stroke-linecap="round" stroke-linejoin="round"><path d="M53 10l-3 3"/><path stroke-width="1.99998" d="M51.03481 8.00533l2.96982-2.96982 4.03047 4.03047-2.96982 2.96982z"/></g><g fill="none" stroke="#C1C1C1" stroke-width="2" stroke-miterlimit="10" stroke-linecap="round" stroke-linejoin="round"><path d="M7 10l3 3"/><path stroke-width="1.99998" d="M2.03511 8.99497L6.06558 4.9645 9.0354 7.93432l-4.03047 4.03047z"/></g><circle cx="30" cy="34" r="3" fill="none" stroke="#F47920" stroke-width="2" stroke-miterlimit="10" stroke-linecap="round" stroke-linejoin="round"/><path fill="none" stroke="#C1C1C1" stroke-width="2" stroke-miterlimit="10" d="M10.1 34h-.2M16 20h-.1M15.9 48h.1M30 14.1v-.2" stroke-linecap="round" stroke-linejoin="round"/></svg>