<svg xmlns="http://www.w3.org/2000/svg" viewBox="0 0 89 97.3"><path d="M75 8.3h-8V2c0-1.1-.9-2-2-2s-2 .9-2 2v6.3H25.3V2c0-1.1-.9-2-2-2s-2 .9-2 2v6.3H14c-7.7 0-14 6.3-14 14v61c0 7.7 6.3 14 14 14h61c7.7 0 14-6.3 14-14v-61c0-7.8-6.3-14-14-14zm10 75c0 5.5-4.5 10-10 10H14c-5.5 0-10-4.5-10-10v-61c0-5.5 4.5-10 10-10h7.3v3.6c0 1.1.9 2 2 2s2-.9 2-2v-3.6H63v3.6c0 1.1.9 2 2 2s2-.9 2-2v-3.6h8c5.5 0 10 4.5 10 10v61z"/><path d="M38.5 32h-6c-2.2 0-4 1.8-4 4v6c0 2.2 1.8 4 4 4h6c2.2 0 4-1.8 4-4v-6c0-2.2-1.8-4-4-4zm0 10h-6v-6h6v6zM56.5 32h-6c-2.2 0-4 1.8-4 4v6c0 2.2 1.8 4 4 4h6c2.2 0 4-1.8 4-4v-6c0-2.2-1.8-4-4-4zm0 10h-6v-6h6v6zM74.4 32h-6c-2.2 0-4 1.8-4 4v6c0 2.2 1.8 4 4 4h6c2.2 0 4-1.8 4-4v-6c0-2.2-1.8-4-4-4zm0 10h-6v-6h6v6zM38.5 50.4h-6c-2.2 0-4 1.8-4 4v6c0 2.2 1.8 4 4 4h6c2.2 0 4-1.8 4-4v-6c0-2.2-1.8-4-4-4zm0 10h-6v-6h6v6zM20.6 50.4h-6c-2.2 0-4 1.8-4 4v6c0 2.2 1.8 4 4 4h6c2.2 0 4-1.8 4-4v-6c0-2.2-1.8-4-4-4zm0 10h-6v-6h6v6zM56.5 50.4h-6c-2.2 0-4 1.8-4 4v6c0 2.2 1.8 4 4 4h6c2.2 0 4-1.8 4-4v-6c0-2.2-1.8-4-4-4zm0 10h-6v-6h6v6zM74.4 50.4h-6c-2.2 0-4 1.8-4 4v6c0 2.2 1.8 4 4 4h6c2.2 0 4-1.8 4-4v-6c0-2.2-1.8-4-4-4zm0 10h-6v-6h6v6zM38.5 68.4h-6c-2.2 0-4 1.8-4 4v6c0 2.2 1.8 4 4 4h6c2.2 0 4-1.8 4-4v-6c0-2.2-1.8-4-4-4zm0 10h-6v-6h6v6zM20.6 68.4h-6c-2.2 0-4 1.8-4 4v6c0 2.2 1.8 4 4 4h6c2.2 0 4-1.8 4-4v-6c0-2.2-1.8-4-4-4zm0 10h-6v-6h6v6zM56.5 68.4h-6c-2.2 0-4 1.8-4 4v6c0 2.2 1.8 4 4 4h6c2.2 0 4-1.8 4-4v-6c0-2.2-1.8-4-4-4zm0 10h-6v-6h6v6zM74.4 68.4h-6c-2.2 0-4 1.8-4 4v6c0 2.2 1.8 4 4 4h6c2.2 0 4-1.8 4-4v-6c0-2.2-1.8-4-4-4zm0 10h-6v-6h6v6z"/></svg>