<svg xmlns="http://www.w3.org/2000/svg" viewBox="0 0 89 97.25">
  <path fill="none" stroke="#000" stroke-width="4" d="M23.25 2v13.88M75 10.25a12 12 0 0 1 12 12v61a12 12 0 0 1-12 12H14a12 12 0 0 1-12-12v-61a12 12 0 0 1 12-12h61zM65 2v13.88" stroke-linecap="round" stroke-linejoin="round"/>
  <rect width="10" height="10" x="30.54" y="32" fill="none" stroke="#000" stroke-width="4" stroke-miterlimit="10" rx="2" ry="2"/>
  <rect width="10" height="10" x="48.46" y="32" fill="none" stroke="#000" stroke-width="4" stroke-miterlimit="10" rx="2" ry="2"/>
  <rect width="10" height="10" x="66.38" y="32" fill="none" stroke="#000" stroke-width="4" stroke-miterlimit="10" rx="2" ry="2"/>
  <rect width="10" height="10" x="30.54" y="50.37" fill="none" stroke="#000" stroke-width="4" stroke-miterlimit="10" rx="2" ry="2"/>
  <rect width="10" height="10" x="12.63" y="50.37" fill="none" stroke="#000" stroke-width="4" stroke-miterlimit="10" rx="2" ry="2"/>
  <rect width="10" height="10" x="48.46" y="50.37" fill="none" stroke="#000" stroke-width="4" stroke-miterlimit="10" rx="2" ry="2"/>
  <rect width="10" height="10" x="66.38" y="50.37" fill="none" stroke="#000" stroke-width="4" stroke-miterlimit="10" rx="2" ry="2"/>
  <rect width="10" height="10" x="30.54" y="68.37" fill="none" stroke="#000" stroke-width="4" stroke-miterlimit="10" rx="2" ry="2"/>
  <rect width="10" height="10" x="12.63" y="68.37" fill="none" stroke="#000" stroke-width="4" stroke-miterlimit="10" rx="2" ry="2"/>
  <rect width="10" height="10" x="48.46" y="68.37" fill="none" stroke="#000" stroke-width="4" stroke-miterlimit="10" rx="2" ry="2"/>
  <rect width="10" height="10" x="66.38" y="68.37" fill="none" stroke="#000" stroke-width="4" stroke-miterlimit="10" rx="2" ry="2"/>
</svg>
