<svg xmlns="http://www.w3.org/2000/svg" id="Layer_1" viewBox="0 0 13.5 17.5">
  <style>
    .st0{fill:currentcolor;stroke:currentcolor;stroke-width:0.5;stroke-linecap:round;stroke-linejoin:round;stroke-miterlimit:10;}
  </style>
  <path d="M6.8.3C3.2.3.3 3.2.3 6.8s6.5 10.5 6.5 10.5 6.5-6.9 6.5-10.5S10.4.3 6.8.3zm0 16.1c-.6-.6-1.8-1.9-2.9-3.4C1.9 10.2.8 8.1.8 6.7.8 3.4 3.5.8 6.7.8s5.9 2.7 5.9 6c0 1.3-1.1 3.5-3.1 6.3-1 1.4-2.2 2.7-2.7 3.3z" class="st0"/>
  <path d="M6.8 3.4c-1.8 0-3.1 1.3-3.1 3S5 9.5 6.8 9.5s3.1-1.4 3.1-3.1c-.1-1.6-1.4-3-3.1-3zm1.7 4.8c-.4.5-1.1.8-1.7.8S5.4 8.7 5 8.2c-.5-.4-.7-1.1-.7-1.7s.2-1.3.7-1.8c.4-.4 1.1-.7 1.8-.7s1.3.3 1.8.7c.4.5.6 1.1.6 1.8S9 7.8 8.5 8.2z" class="st0"/>
</svg>
