<svg xmlns="http://www.w3.org/2000/svg" viewBox="0 0 50 50">
  <!-- <path fill="none" d="M0 0h50v50H0z"/> -->
  <circle cx="43" cy="21" r="2" fill='currentcolor'/>
  <path fill="none" stroke="currentcolor" stroke-width="2" stroke-miterlimit="10" d="M40 15V1H10v14m30 14v20H10V29z" stroke-linecap="round"/>
  <path fill="none" stroke="currentcolor" stroke-width="2" stroke-miterlimit="10" d="M10 40H3a2 2 0 0 1-2-2V17a2 2 0 0 1 2-2h44a2 2 0 0 1 2 2v21a2 2 0 0 1-2 2h-7m-5-5H15m16 4H15m20 4H15" stroke-linecap="round"/>
</svg>
