<svg xmlns="http://www.w3.org/2000/svg" viewBox="0 0 13.5 13.5"><path fill="currentcolor" d="M7.4 7.7c.1-.1.3-.3.6-.5.5-.5.9-.9 1.1-1.2.2-.3.3-.6.3-.9 0-.5-.2-1-.7-1.4-.5-.4-1.2-.6-2-.6-.7 0-1.3.2-1.8.6-.4.5-.7.9-.7 1.5l1.3.2c0-.4.2-.7.4-.9.2-.2.5-.3.9-.3s.6.1.9.3c.2.2.3.4.3.7 0 .2-.1.4-.2.5-.1.1-.3.3-.7.6-.4.3-.7.6-.8.9-.1.3-.2.6-.2 1v.3h1.2c0-.4.1-.6.1-.8zm.1 2.7V9H6.1v1.4h1.4z"/><path fill="currentcolor" d="M6.8 1c3.2 0 5.8 2.6 5.8 5.8 0 3.2-2.6 5.7-5.8 5.7S1 9.9 1 6.8C1 3.6 3.6 1 6.8 1m0-1C3 0 0 3 0 6.8c0 3.7 3 6.7 6.8 6.7s6.8-3 6.8-6.7C13.5 3 10.5 0 6.8 0z"/></svg>