<svg xmlns="http://www.w3.org/2000/svg" id="icons" viewBox="0 0 22 21.2"><style>.st0{fill:none;stroke:#ABA5A4;stroke-linecap:round;stroke-linejoin:round;stroke-miterlimit:10;} .st1{fill:none;stroke:#ABA5A4;stroke-linejoin:round;stroke-miterlimit:10;}</style><g id="_x31_3_x5F_cargo_x5F_protection"><path d="M2.5 5.3h.4M4.1 5.3h.4M5.8 5.3h.4M2.5 7h4.9M2.5 8.6h2.4M4.5 17.9v-3.3H2.9l2.4-2.8 2.5 2.8H6.2v3.3M15.8 17.9v-3.3h-1.6l2.5-2.8 2.4 2.8h-1.6v3.3M.5 2.1h6.9" class="st0"/><path d="M.5 19.1h21" class="st1"/><path d="M9.4.5V7h3.2V.5H.9C.7.5.5.7.5.9v19.4c0 .2.2.4.4.4h20.2c.2 0 .4-.2.4-.4v-8.5" class="st0"/><path d="M12.6.5h8.5c.2 0 .4.2.4.4v19.4c0 .2-.2.4-.4.4H.9c-.2 0-.4-.2-.4-.4v-8.5M14.6 2.1h6.9" class="st0"/></g></svg>