<svg version="1" xmlns="http://www.w3.org/2000/svg" width="666.667" height="666.667" viewBox="0 0 500.000000 500.000000"><path d="M82.6 48.7c-.3 1-4.6 21.1-9.5 44.8-5 23.6-9.3 44-9.6 45.2L63 141h338.9l2-2.6c2.6-3.3 2.6-5.5.1-10.2-1.1-2-13.1-21-26.7-42.2l-24.8-38.5-134.7-.3C90.2 47 83.1 47.1 82.6 48.7zM50.1 208.7c-.6 2.7-4.9 22.6-9.6 44.3-4.7 21.7-8.7 40.5-9 41.7L31 297h415.5l26.5-20.5c14.6-11.3 26.4-20.9 26.3-21.4-.1-.5-7.7-12.2-16.7-26L466 204H51.2l-1.1 4.7zM10.6 404.7C5.1 429.9.5 451.1.2 451.7c-.3 1 24.3 1.3 120.9 1.3h121.4l49-37.5c27-20.7 50.1-38.7 51.4-40.2 3.2-3.7 2.5-10.7-1.4-14l-2.6-2.3H20.5l-9.9 45.7z"/></svg>