<svg xmlns="http://www.w3.org/2000/svg" viewBox="0 0 64 60"><path fill="none" stroke="#F47920" stroke-width="2" stroke-miterlimit="10" d="M59 59H5l-4-4v-2h24l2 2h10l2-2h24v2zM9 15H8c-1.7 0-3 1.3-3 3v32M59 50V18c0-1.7-1.3-3-3-3h-1M28.7 47h2M24 47h2M33.3 47h2M38 47h2M59 47H43M21 47H5" stroke-linecap="round" stroke-linejoin="round"/><circle cx="32" cy="21" r="20" fill="none" stroke="#C1C1C1" stroke-width="2" stroke-miterlimit="10" stroke-linecap="round" stroke-linejoin="round"/><ellipse cx="32" cy="21" fill="none" stroke="#C1C1C1" stroke-width="2" stroke-miterlimit="10" stroke-linecap="round" stroke-linejoin="round" rx="8" ry="20"/><ellipse cx="32" cy="21" fill="none" stroke="#C1C1C1" stroke-width="2" stroke-miterlimit="10" stroke-linecap="round" stroke-linejoin="round" rx="20" ry="8"/></svg>