<svg xmlns="http://www.w3.org/2000/svg" viewBox="0 0 64 65"><path fill="none" stroke="#C1C1C1" stroke-width="2" stroke-miterlimit="10" d="M15 27.8h34M15 34.2h33.9M17 40.6h30M17 47h30" stroke-linecap="round" stroke-linejoin="round"/><path fill="none" stroke="#F47920" stroke-width="2" stroke-miterlimit="10" d="M9 28V1h38l8 8v19" stroke-linecap="round" stroke-linejoin="round"/><g fill="none" stroke="#F47920" stroke-width="2" stroke-miterlimit="10" stroke-linecap="round" stroke-linejoin="round"><path d="M5 55v-3L1 40l3.1-9L9 28"/><path d="M17 55V43l-2-9v-6c0-1.7-1.2-3-2.9-3S9 26.3 9 28v8l-1 7"/></g><path fill="none" stroke="#F47920" stroke-width="2" stroke-miterlimit="10" d="M3 64v-9h16v9" stroke-linecap="round" stroke-linejoin="round"/><path fill="none" stroke="#C1C1C1" stroke-width="2" stroke-miterlimit="10" d="M16 59h-2" stroke-linecap="round" stroke-linejoin="round"/><path fill="none" stroke="#F47920" stroke-width="2" stroke-miterlimit="10" d="M59 55v-3l4-12-3.1-9-4.9-3" stroke-linecap="round" stroke-linejoin="round"/><path fill="none" stroke="#F47920" stroke-width="2" stroke-miterlimit="10" d="M47 55V43l2-9v-6c0-1.7 1.2-3 2.9-3s3.1 1.3 3.1 3v8l1 7" stroke-linecap="round" stroke-linejoin="round"/><path fill="none" stroke="#C1C1C1" stroke-width="2" stroke-miterlimit="10" d="M48 59h2" stroke-linecap="round" stroke-linejoin="round"/><path fill="none" stroke="#F47920" stroke-width="2" stroke-miterlimit="10" d="M45 64v-8c0-.6.4-1 1-1h13c.6 0 1 .4 1 1v8M55 9h-8V1" stroke-linecap="round" stroke-linejoin="round"/><path fill="none" stroke="#C1C1C1" stroke-width="2" stroke-miterlimit="10" d="M14 7h2M19 7h2M24 7h2M14 15h28M14 21.4h36" stroke-linecap="round" stroke-linejoin="round"/><path fill="none" stroke="#F47920" stroke-width="2" stroke-miterlimit="10" d="M19 58h26" stroke-linecap="round" stroke-linejoin="round"/></svg>