<svg xmlns="http://www.w3.org/2000/svg" viewBox="0 0 64 64"><path fill="none" stroke="#F47920" stroke-width="2" stroke-miterlimit="10" d="M39 26h6v14H19V26h6" stroke-linecap="round" stroke-linejoin="round"/><path fill="none" stroke="#F47920" stroke-width="2" stroke-miterlimit="10" d="M41 10c0 5-9 19-9 19s-9-14-9-19 4-9 9-9 9 4 9 9z" stroke-linecap="round" stroke-linejoin="round"/><circle cx="32" cy="10" r="5" fill="none" stroke="#F47920" stroke-width="2" stroke-miterlimit="10" stroke-linecap="round" stroke-linejoin="round"/><path fill="none" stroke="#C1C1C1" stroke-width="2" stroke-miterlimit="10" d="M16 31h-6c-1.1 0-2-.9-2-2v-9M16 35h-6c-1.1 0-2 .9-2 2v9" stroke-linecap="round" stroke-linejoin="round"/><circle cx="8" cy="10" r="7" fill="none" stroke="#F47920" stroke-width="2" stroke-miterlimit="10" stroke-linecap="round" stroke-linejoin="round"/><circle cx="8" cy="56" r="7" fill="none" stroke="#F47920" stroke-width="2" stroke-miterlimit="10" stroke-linecap="round" stroke-linejoin="round"/><path fill="none" stroke="#C1C1C1" stroke-width="2" stroke-miterlimit="10" d="M48 31h6c1.1 0 2-.9 2-2v-9M18 56h10c1.1 0 2-.9 2-2V43M46 56H36c-1.1 0-2-.9-2-2V43M48 35h6c1.1 0 2 .9 2 2v9" stroke-linecap="round" stroke-linejoin="round"/><circle cx="56" cy="10" r="7" fill="none" stroke="#F47920" stroke-width="2" stroke-miterlimit="10" stroke-linecap="round" stroke-linejoin="round"/><circle cx="56" cy="56" r="7" fill="none" stroke="#F47920" stroke-width="2" stroke-miterlimit="10" stroke-linecap="round" stroke-linejoin="round"/><circle cx="56" cy="10" r="3" fill="none" stroke="#F47920" stroke-width="2" stroke-miterlimit="10" stroke-linecap="round" stroke-linejoin="round"/><circle cx="56" cy="56" r="3" fill="none" stroke="#F47920" stroke-width="2" stroke-miterlimit="10" stroke-linecap="round" stroke-linejoin="round"/><circle cx="8" cy="10" r="3" fill="none" stroke="#F47920" stroke-width="2" stroke-miterlimit="10" stroke-linecap="round" stroke-linejoin="round"/><circle cx="8" cy="56" r="3" fill="none" stroke="#F47920" stroke-width="2" stroke-miterlimit="10" stroke-linecap="round" stroke-linejoin="round"/></svg>