<svg xmlns="http://www.w3.org/2000/svg" viewBox="0 0 64 64"><path fill="none" stroke="#C1C1C1" stroke-width="2" stroke-miterlimit="10" d="M43 25c1.3 2 2 4.4 2 7 0 7.2-5.8 13-13 13-2.6 0-5-.8-7-2M21 39c-1.3-2-2-4.4-2-7 0-7.2 5.8-13 13-13 2.6 0 5 .7 7 2" stroke-linecap="round" stroke-linejoin="round"/><circle cx="32" cy="32" r="25" fill="none" stroke="#C1C1C1" stroke-width="2" stroke-miterlimit="10" stroke-linecap="round" stroke-linejoin="round"/><path fill="none" stroke="#F47920" stroke-width="2" stroke-miterlimit="10" d="M18 46l18-10-8-8z" stroke-linecap="round" stroke-linejoin="round"/><path fill="none" stroke="#F47920" stroke-width="2" stroke-miterlimit="10" d="M36 36l10-18-18 10" stroke-linecap="round" stroke-linejoin="round"/><path fill="none" stroke="#C1C1C1" stroke-width="2" stroke-miterlimit="10" d="M52 32h-1M13.5 32h-1M31.5 13h1M31.5 51h1M32 1v6M63 32h-6M32 57v6M7 32H1" stroke-linecap="round" stroke-linejoin="round"/><circle cx="32" cy="32" r="31" fill="none" stroke="#F47920" stroke-width="2" stroke-miterlimit="10" stroke-linecap="round" stroke-linejoin="round"/></svg>