<svg xmlns="http://www.w3.org/2000/svg" id="Layer_1" viewBox="0 0 25.9 33.8"><style>.st0{fill:#CA824E;stroke:#FFFFFF;stroke-width:1.5;stroke-miterlimit:10;} .st1{fill:#FFFFFF;stroke:#FFFFFF;stroke-width:1.5;stroke-miterlimit:10;}</style><path d="M13 .8C6.2.8.8 6.2.8 13S13 32.8 13 32.8s12.2-13 12.2-19.8S19.7.8 13 .8zm3.3 14.9c-.9.9-2 1.4-3.3 1.4-1.3 0-2.5-.5-3.3-1.4-.9-.9-1.4-2-1.4-3.3s.5-2.4 1.4-3.3c.9-.9 2-1.4 3.3-1.4 1.3 0 2.5.5 3.3 1.4.9.9 1.4 2 1.4 3.3s-.6 2.5-1.4 3.3z" class="st0"/><circle cx="13" cy="12.4" r="4.7" class="st1"/></svg>