<svg xmlns="http://www.w3.org/2000/svg" viewBox="0 0 16 23.86">
    <path fill="none" stroke="currentcolor" d="M9.22 3.75h5.54a.73.73 0 0 1 .73.73v15.23l-3.68 3.64H1.23a.73.73 0 0 1-.73-.73V4.49a.73.73 0 0 1 .73-.73h1.92" stroke-linecap="round" stroke-linejoin="round"/>
    <path fill="none" stroke="currentcolor" d="M11.8 23.05v-2.6a.73.73 0 0 1 .73-.73h2.6M3.15 9.11h9.75m-9.75 2.65h9.75m-9.75 2.65h9.75m-9.75 2.65h9.75m-9.75 2.65h5.47M4.58 2A1.51 1.51 0 0 1 6.08.5 1.51 1.51 0 0 1 7.59 2v3.77a1.51 1.51 0 0 1-1.5 1.5 1.51 1.51 0 0 1-1.5-1.5" stroke-linecap="round" stroke-linejoin="round"/>
    <path fill="none" stroke="currentcolor" d="M6.08 2v2.26a.75.75 0 0 1-.75.74.75.75 0 0 1-.75-.75V2" stroke-linecap="round" stroke-linejoin="round"/>
</svg>
