<svg xmlns="http://www.w3.org/2000/svg" viewBox="0 0 56 65"><path fill="none" stroke="#F47920" stroke-width="2" stroke-miterlimit="10" d="M28 64V43" stroke-linecap="round" stroke-linejoin="round"/><circle cx="28" cy="6" r="5" fill="none" stroke="#F47920" stroke-width="2" stroke-miterlimit="10" stroke-linecap="round" stroke-linejoin="round"/><path fill="none" stroke="#F47920" stroke-width="2" stroke-miterlimit="10" d="M39 22v-1c0-3.3-2.7-6-6-6H23c-3.3 0-6 2.7-6 6v1M11 64V47" stroke-linecap="round" stroke-linejoin="round"/><circle cx="11" cy="14" r="4" fill="none" stroke="#F47920" stroke-width="2" stroke-miterlimit="10" stroke-linecap="round" stroke-linejoin="round"/><path fill="none" stroke="#F47920" stroke-width="2" stroke-miterlimit="10" d="M17 64V44h4V27c0-2.8-2.2-5-5-5H6c-2.8 0-5 2.2-5 5v17h4v20M45 64V47" stroke-linecap="round" stroke-linejoin="round"/><circle cx="45" cy="14" r="4" fill="none" stroke="#F47920" stroke-width="2" stroke-miterlimit="10" stroke-linecap="round" stroke-linejoin="round"/><path fill="none" stroke="#F47920" stroke-width="2" stroke-miterlimit="10" d="M51 64V44h4V27c0-2.8-2.2-5-5-5H40c-2.8 0-5 2.2-5 5v17h4v20" stroke-linecap="round" stroke-linejoin="round"/><path fill="none" stroke="#C1C1C1" stroke-width="2" stroke-miterlimit="10" d="M28 18v2M28 23v2M45 25v2M11 25v2" stroke-linecap="round" stroke-linejoin="round"/><path fill="none" stroke="#F47920" stroke-width="2" stroke-miterlimit="10" d="M21 44v20M35 44v20" stroke-linecap="round" stroke-linejoin="round"/></svg>