<svg xmlns="http://www.w3.org/2000/svg" viewBox="0 0 46 64"><path fill="none" stroke="#C1C1C1" stroke-width="2" stroke-miterlimit="10" d="M6 5H1c0 14 13 22 13 22M40 5h5c0 14-13 22-13 22" stroke-linecap="round" stroke-linejoin="round"/><path fill="none" stroke="#F47920" stroke-width="2" stroke-miterlimit="10" d="M21 43V33C15 31 9 21 9 11c0-3 1-10 1-10h26s1 7 1 10c0 10-6 20-12 22v10M34 47H12l4-4h14zM10 47h26v12H10z" stroke-linecap="round" stroke-linejoin="round"/><path fill="none" stroke="#C1C1C1" stroke-width="2" stroke-miterlimit="10" d="M6 59h34v4H6zM23 6l2 6h6l-5 4 2 6-5-4-5 4 2-6-5-4h6z" stroke-linecap="round" stroke-linejoin="round"/></svg>