<svg xmlns="http://www.w3.org/2000/svg" viewBox="0 0 65 65"><path fill="none" stroke="#C1C1C1" stroke-width="2" stroke-miterlimit="10" d="M61 22c1.3 3.4 2 7.1 2 11 0 17.1-13.9 31-31 31S1 50.1 1 33 14.9 2 32 2c3.9 0 7.6.7 11 2" stroke-linecap="round" stroke-linejoin="round"/><path fill="none" stroke="#F47920" stroke-width="2" stroke-miterlimit="10" d="M64 8h-7V1M60 12h-7V5" stroke-linecap="round" stroke-linejoin="round"/><circle cx="32" cy="33" r="25" fill="none" stroke="#F47920" stroke-width="2" stroke-miterlimit="10" stroke-linecap="round" stroke-linejoin="round"/><circle cx="32" cy="33" r="19" fill="none" stroke="#C1C1C1" stroke-width="2" stroke-miterlimit="10" stroke-linecap="round" stroke-linejoin="round"/><circle cx="32" cy="33" r="13" fill="none" stroke="#F47920" stroke-width="2" stroke-miterlimit="10" stroke-linecap="round" stroke-linejoin="round"/><circle cx="32" cy="33" r="7" fill="none" stroke="#C1C1C1" stroke-width="2" stroke-miterlimit="10" stroke-linecap="round" stroke-linejoin="round"/><circle cx="32" cy="33" r="1" fill="none" stroke="#F47920" stroke-width="2" stroke-miterlimit="10" stroke-linecap="round" stroke-linejoin="round"/><path fill="none" stroke="#C1C1C1" stroke-width="2" stroke-miterlimit="10" d="M12 57l-7 7H1l6-12M52 57l7 7h4l-6-12" stroke-linecap="round" stroke-linejoin="round"/><path fill="none" stroke="#F47920" stroke-width="2" stroke-miterlimit="10" d="M32 33l22-22 9-9" stroke-linecap="round" stroke-linejoin="round"/></svg>