<svg xmlns="http://www.w3.org/2000/svg" viewBox="0 0 66 66"><path fill="none" stroke="#F47920" stroke-linecap="round" stroke-linejoin="round" stroke-miterlimit="10" stroke-width="2" d="M6 1v64M1 60h64M12 46l8-8"/><g fill="none" stroke="#C1C1C1" stroke-linecap="round" stroke-linejoin="round" stroke-miterlimit="10" stroke-width="2"><path d="M10 57v-2M14 57v-2M18 57v-2M22 57v-2M26 57v-2M30 57v-2M34 57v-2M38 57v-2M42 57v-2M46 57v-2M50 57v-2M54 57v-2M58 57v-2M62 57v-2"/></g><path fill="none" stroke="#F47920" stroke-linecap="round" stroke-linejoin="round" stroke-miterlimit="10" stroke-width="2" d="M25 33l4-4h14l19-19"/><path fill="none" stroke="#C1C1C1" stroke-linecap="round" stroke-linejoin="round" stroke-miterlimit="10" stroke-width="2" d="M11 12h13l6 6 6-6h5l7 7M53 24l9 9M57 33h5v-5"/><path fill="none" stroke="#F47920" stroke-linecap="round" stroke-linejoin="round" stroke-miterlimit="10" stroke-width="2" d="M62 15v-5h-5"/><path fill="none" stroke="#C1C1C1" stroke-linecap="round" stroke-linejoin="round" stroke-miterlimit="10" stroke-width="2" d="M58 47l4-4-4-4"/><path fill="none" stroke="#C1C1C1" stroke-linecap="round" stroke-linejoin="round" stroke-miterlimit="10" stroke-width="2" d="M62 43H44l-5-5-7 7-20-20"/></svg>