<svg xmlns="http://www.w3.org/2000/svg" viewBox="0 0 64 59"><path fill="none" stroke="#F47920" stroke-linecap="round" stroke-linejoin="round" stroke-miterlimit="10" stroke-width="2" d="M49 4c0-1.7-1.3-3-3-3H4C2.3 1 1 2.3 1 4v28c0 1.7 1.3 3 3 3h42c1.7 0 3-1.3 3-3V14M30 35l1 9M19 44l1-9M17 44h16M1 29h48"/><path fill="none" stroke="#C1C1C1" stroke-linecap="round" stroke-linejoin="round" stroke-miterlimit="10" stroke-width="2" d="M37 44h26v4H1v-4h12"/><path fill="none" stroke="#F47920" stroke-linecap="round" stroke-linejoin="round" stroke-miterlimit="10" stroke-width="2" d="M59 19L45 5M55 40l5-15"/><path fill="none" stroke="#C1C1C1" stroke-linecap="round" stroke-linejoin="round" stroke-miterlimit="10" stroke-width="2" d="M52 40h8v4H44v-4h4M25 5h20v4H25zM5 48v10M9 48v10M55 48v10M59 48v10"/><circle cx="60" cy="22" r="3" fill="none" stroke="#C1C1C1" stroke-linecap="round" stroke-linejoin="round" stroke-miterlimit="10" stroke-width="2"/></svg>