<svg xmlns="http://www.w3.org/2000/svg" viewBox="0 0 54 64"><path fill="none" stroke="#F47920" stroke-width="2" stroke-miterlimit="10" d="M49.3 23.7C51.7 27.6 53 32.1 53 37c0 14.4-11.6 26-26 26S1 51.4 1 37s11.6-26 26-26M27 14v49M1 37h52" stroke-linecap="round" stroke-linejoin="round"/><path fill="none" stroke="#F47920" stroke-width="2" stroke-miterlimit="10" d="M40 37c0 14.4-5.8 26-13 26S14 51.4 14 37s5.8-26 13-26M6 22h23M6 52h42" stroke-linecap="round" stroke-linejoin="round"/><path fill="none" stroke="#C1C1C1" stroke-width="2" stroke-miterlimit="10" d="M53 14c0 8-13 23-13 23S27 22 27 14c0-7.2 5.8-13 13-13s13 5.8 13 13z" stroke-linecap="round" stroke-linejoin="round"/><circle cx="40" cy="14" r="8" fill="none" stroke="#C1C1C1" stroke-width="2" stroke-miterlimit="10" stroke-linecap="round" stroke-linejoin="round"/></svg>