<svg xmlns="http://www.w3.org/2000/svg" viewBox="0 0 64 58"><path fill="none" stroke="#F47920" stroke-width="2" stroke-miterlimit="10" d="M59 43v14H7c-3.3 0-6-2.7-6-6V9" stroke-linecap="round" stroke-linejoin="round"/><path fill="none" stroke="#F47920" stroke-width="2" stroke-miterlimit="10" d="M14 3H7C3.7 3 1 5.7 1 9s2.7 6 6 6h52v14M59 12V3h-5" stroke-linecap="round" stroke-linejoin="round"/><circle cx="41" cy="36" r="3" fill="none" stroke="#C1C1C1" stroke-width="2" stroke-miterlimit="10" stroke-linecap="round" stroke-linejoin="round"/><g fill="none" stroke="#C1C1C1" stroke-width="2" stroke-miterlimit="10" stroke-linecap="round" stroke-linejoin="round"><path d="M49.1 19h-2M44.2 19h-2M34.4 19h-2M24.7 19h-2M14.9 19h-2M54 19h-2M39.3 19h-2M29.6 19h-2M19.8 19h-2M10 19H8"/></g><path fill="none" stroke="#F47920" stroke-width="2" stroke-miterlimit="10" d="M59 23h1c1.7 0 3 1.3 3 3s-1.3 3-3 3H41c-3.9 0-7 3.1-7 7s3.1 7 7 7h19c1.7 0 3-1.3 3-3V26" stroke-linecap="round" stroke-linejoin="round"/><path fill="none" stroke="#C1C1C1" stroke-width="2" stroke-miterlimit="10" d="M17 7V1h34v5M45 10V7H11v3" stroke-linecap="round" stroke-linejoin="round"/><path fill="none" stroke="#F47920" stroke-width="2" stroke-miterlimit="10" d="M59 9H48" stroke-linecap="round" stroke-linejoin="round"/><g fill="none" stroke="#C1C1C1" stroke-width="2" stroke-miterlimit="10" stroke-linecap="round" stroke-linejoin="round"><path d="M49.1 52h-2M44.2 52h-2M34.4 52h-2M24.7 52h-2M14.9 52h-2M54 52h-2M39.3 52h-2M29.6 52h-2M19.8 52h-2M10 52H8"/></g></svg>